<mxfile host="app.diagrams.net" agent="Mozilla/5.0 (Windows NT 10.0; Win64; x64) AppleWebKit/537.36 (KHTML, like Gecko) Chrome/131.0.0.0 Safari/537.36" version="24.8.8">
  <diagram name="PaginÄƒ-1" id="NDgHQlnjcXdBsaZAbSEV">
    <mxGraphModel dx="5425" dy="1375" grid="1" gridSize="10" guides="1" tooltips="1" connect="1" arrows="1" fold="1" page="1" pageScale="1" pageWidth="1654" pageHeight="1169" math="0" shadow="0">
      <root>
        <mxCell id="0" />
        <mxCell id="1" parent="0" />
        <mxCell id="_qUYr22ZmbMlHLYQtjZS-10" style="edgeStyle=orthogonalEdgeStyle;rounded=0;orthogonalLoop=1;jettySize=auto;html=1;entryX=0;entryY=0.5;entryDx=0;entryDy=0;exitX=0.75;exitY=0;exitDx=0;exitDy=0;" parent="1" source="kEvtJjwDZgK5OptWkUgx-2" target="kEvtJjwDZgK5OptWkUgx-87" edge="1">
          <mxGeometry relative="1" as="geometry">
            <mxPoint x="855.75" y="756" as="sourcePoint" />
            <mxPoint x="1335.75" y="620" as="targetPoint" />
            <Array as="points">
              <mxPoint x="851" y="756" />
              <mxPoint x="851" y="625" />
            </Array>
          </mxGeometry>
        </mxCell>
        <mxCell id="_qUYr22ZmbMlHLYQtjZS-20" style="edgeStyle=orthogonalEdgeStyle;rounded=0;orthogonalLoop=1;jettySize=auto;html=1;entryX=0;entryY=0.5;entryDx=0;entryDy=0;" parent="1" source="kEvtJjwDZgK5OptWkUgx-2" target="kEvtJjwDZgK5OptWkUgx-4" edge="1">
          <mxGeometry relative="1" as="geometry">
            <Array as="points">
              <mxPoint x="1335.75" y="781" />
            </Array>
          </mxGeometry>
        </mxCell>
        <mxCell id="_qUYr22ZmbMlHLYQtjZS-98" style="edgeStyle=orthogonalEdgeStyle;rounded=0;orthogonalLoop=1;jettySize=auto;html=1;exitX=0.5;exitY=0;exitDx=0;exitDy=0;" parent="1" source="kEvtJjwDZgK5OptWkUgx-2" edge="1">
          <mxGeometry relative="1" as="geometry">
            <mxPoint x="830" y="410" as="targetPoint" />
          </mxGeometry>
        </mxCell>
        <mxCell id="kEvtJjwDZgK5OptWkUgx-2" value="Book" style="whiteSpace=wrap;html=1;align=center;" parent="1" vertex="1">
          <mxGeometry x="780" y="756" width="100" height="40" as="geometry" />
        </mxCell>
        <mxCell id="_qUYr22ZmbMlHLYQtjZS-94" style="edgeStyle=orthogonalEdgeStyle;rounded=0;orthogonalLoop=1;jettySize=auto;html=1;entryX=0;entryY=0.5;entryDx=0;entryDy=0;" parent="1" source="kEvtJjwDZgK5OptWkUgx-3" target="kEvtJjwDZgK5OptWkUgx-2" edge="1">
          <mxGeometry relative="1" as="geometry">
            <Array as="points">
              <mxPoint x="400" y="776" />
              <mxPoint x="400" y="776" />
            </Array>
          </mxGeometry>
        </mxCell>
        <mxCell id="kEvtJjwDZgK5OptWkUgx-3" value="Author" style="whiteSpace=wrap;html=1;align=center;" parent="1" vertex="1">
          <mxGeometry x="180" y="760" width="100" height="40" as="geometry" />
        </mxCell>
        <mxCell id="kEvtJjwDZgK5OptWkUgx-4" value="Category" style="whiteSpace=wrap;html=1;align=center;" parent="1" vertex="1">
          <mxGeometry x="1335.75" y="761" width="100" height="40" as="geometry" />
        </mxCell>
        <mxCell id="_qUYr22ZmbMlHLYQtjZS-75" style="edgeStyle=orthogonalEdgeStyle;rounded=0;orthogonalLoop=1;jettySize=auto;html=1;entryX=1;entryY=0.5;entryDx=0;entryDy=0;exitX=0.5;exitY=0;exitDx=0;exitDy=0;" parent="1" source="zgkDY3eTsV_191SLRf_i-5" target="kEvtJjwDZgK5OptWkUgx-23" edge="1">
          <mxGeometry relative="1" as="geometry">
            <Array as="points">
              <mxPoint x="-120" y="385" />
            </Array>
            <mxPoint x="-10" y="519.4667154947916" as="sourcePoint" />
          </mxGeometry>
        </mxCell>
        <mxCell id="_qUYr22ZmbMlHLYQtjZS-102" style="edgeStyle=orthogonalEdgeStyle;rounded=0;orthogonalLoop=1;jettySize=auto;html=1;entryX=0;entryY=0.5;entryDx=0;entryDy=0;" parent="1" source="kEvtJjwDZgK5OptWkUgx-5" target="kEvtJjwDZgK5OptWkUgx-6" edge="1">
          <mxGeometry relative="1" as="geometry" />
        </mxCell>
        <mxCell id="kEvtJjwDZgK5OptWkUgx-5" value="Client" style="whiteSpace=wrap;html=1;align=center;" parent="1" vertex="1">
          <mxGeometry x="180" y="367.5" width="100" height="40" as="geometry" />
        </mxCell>
        <mxCell id="_qUYr22ZmbMlHLYQtjZS-103" style="edgeStyle=orthogonalEdgeStyle;rounded=0;orthogonalLoop=1;jettySize=auto;html=1;entryX=0;entryY=0.5;entryDx=0;entryDy=0;" parent="1" source="kEvtJjwDZgK5OptWkUgx-6" target="kEvtJjwDZgK5OptWkUgx-77" edge="1">
          <mxGeometry relative="1" as="geometry" />
        </mxCell>
        <mxCell id="kEvtJjwDZgK5OptWkUgx-6" value="Order" style="whiteSpace=wrap;html=1;align=center;" parent="1" vertex="1">
          <mxGeometry x="781.5" y="370" width="100" height="40" as="geometry" />
        </mxCell>
        <mxCell id="kEvtJjwDZgK5OptWkUgx-7" value="ISBN" style="ellipse;whiteSpace=wrap;html=1;align=center;fontStyle=4;" parent="1" vertex="1">
          <mxGeometry x="658.5" y="796" width="100" height="40" as="geometry" />
        </mxCell>
        <mxCell id="kEvtJjwDZgK5OptWkUgx-8" value="title" style="ellipse;whiteSpace=wrap;html=1;align=center;" parent="1" vertex="1">
          <mxGeometry x="658.5" y="716" width="100" height="40" as="geometry" />
        </mxCell>
        <mxCell id="kEvtJjwDZgK5OptWkUgx-9" value="price" style="ellipse;whiteSpace=wrap;html=1;align=center;" parent="1" vertex="1">
          <mxGeometry x="890" y="806" width="100" height="40" as="geometry" />
        </mxCell>
        <mxCell id="kEvtJjwDZgK5OptWkUgx-14" value="category_id" style="ellipse;whiteSpace=wrap;html=1;align=center;fontStyle=4;" parent="1" vertex="1">
          <mxGeometry x="1435.75" y="801" width="100" height="40" as="geometry" />
        </mxCell>
        <mxCell id="kEvtJjwDZgK5OptWkUgx-15" value="category_name" style="ellipse;whiteSpace=wrap;html=1;align=center;" parent="1" vertex="1">
          <mxGeometry x="1435.75" y="721" width="100" height="40" as="geometry" />
        </mxCell>
        <mxCell id="kEvtJjwDZgK5OptWkUgx-16" value="publisher_id" style="ellipse;whiteSpace=wrap;html=1;align=center;" parent="1" vertex="1">
          <mxGeometry x="890" y="701" width="100" height="40" as="geometry" />
        </mxCell>
        <mxCell id="kEvtJjwDZgK5OptWkUgx-17" value="ID" style="ellipse;whiteSpace=wrap;html=1;align=center;fontStyle=4;" parent="1" vertex="1">
          <mxGeometry x="-110" y="720" width="100" height="40" as="geometry" />
        </mxCell>
        <mxCell id="kEvtJjwDZgK5OptWkUgx-19" value="first_name" style="ellipse;whiteSpace=wrap;html=1;align=center;" parent="1" vertex="1">
          <mxGeometry x="-310.01" y="585" width="100" height="40" as="geometry" />
        </mxCell>
        <mxCell id="kEvtJjwDZgK5OptWkUgx-20" value="last_name" style="ellipse;whiteSpace=wrap;html=1;align=center;" parent="1" vertex="1">
          <mxGeometry x="-240" y="545" width="100" height="40" as="geometry" />
        </mxCell>
        <mxCell id="kEvtJjwDZgK5OptWkUgx-23" value="Address" style="whiteSpace=wrap;html=1;align=center;" parent="1" vertex="1">
          <mxGeometry x="-390" y="365" width="100" height="40" as="geometry" />
        </mxCell>
        <mxCell id="kEvtJjwDZgK5OptWkUgx-24" value="address_id" style="ellipse;whiteSpace=wrap;html=1;align=center;fontStyle=4;" parent="1" vertex="1">
          <mxGeometry x="-510" y="395" width="100" height="40" as="geometry" />
        </mxCell>
        <mxCell id="kEvtJjwDZgK5OptWkUgx-25" value="adress_id" style="ellipse;whiteSpace=wrap;html=1;align=center;" parent="1" vertex="1">
          <mxGeometry x="-300" y="627.5" width="100" height="40" as="geometry" />
        </mxCell>
        <mxCell id="kEvtJjwDZgK5OptWkUgx-26" value="street_name" style="ellipse;whiteSpace=wrap;html=1;align=center;" parent="1" vertex="1">
          <mxGeometry x="-480" y="290" width="100" height="40" as="geometry" />
        </mxCell>
        <mxCell id="kEvtJjwDZgK5OptWkUgx-27" value="city" style="ellipse;whiteSpace=wrap;html=1;align=center;" parent="1" vertex="1">
          <mxGeometry x="-430" y="250" width="100" height="40" as="geometry" />
        </mxCell>
        <mxCell id="kEvtJjwDZgK5OptWkUgx-29" value="ZIP_code" style="ellipse;whiteSpace=wrap;html=1;align=center;" parent="1" vertex="1">
          <mxGeometry x="-510" y="340" width="100" height="40" as="geometry" />
        </mxCell>
        <mxCell id="kEvtJjwDZgK5OptWkUgx-30" value="order_id" style="ellipse;whiteSpace=wrap;html=1;align=center;fontStyle=4;" parent="1" vertex="1">
          <mxGeometry x="658.5" y="330" width="100" height="40" as="geometry" />
        </mxCell>
        <mxCell id="kEvtJjwDZgK5OptWkUgx-32" value="order_number" style="ellipse;whiteSpace=wrap;html=1;align=center;" parent="1" vertex="1">
          <mxGeometry x="781.5" y="300" width="100" height="40" as="geometry" />
        </mxCell>
        <mxCell id="kEvtJjwDZgK5OptWkUgx-33" value="order_amount" style="ellipse;whiteSpace=wrap;html=1;align=center;" parent="1" vertex="1">
          <mxGeometry x="881.5" y="260" width="100" height="40" as="geometry" />
        </mxCell>
        <mxCell id="kEvtJjwDZgK5OptWkUgx-34" value="issued_date" style="ellipse;whiteSpace=wrap;html=1;align=center;" parent="1" vertex="1">
          <mxGeometry x="681.5" y="260" width="100" height="40" as="geometry" />
        </mxCell>
        <mxCell id="kEvtJjwDZgK5OptWkUgx-35" value="client_id" style="ellipse;whiteSpace=wrap;html=1;align=center;" parent="1" vertex="1">
          <mxGeometry x="913" y="330" width="100" height="40" as="geometry" />
        </mxCell>
        <mxCell id="kEvtJjwDZgK5OptWkUgx-36" value="address_addition" style="ellipse;whiteSpace=wrap;html=1;align=center;" parent="1" vertex="1">
          <mxGeometry x="-430" y="485" width="100" height="40" as="geometry" />
        </mxCell>
        <mxCell id="kEvtJjwDZgK5OptWkUgx-39" value="state" style="ellipse;whiteSpace=wrap;html=1;align=center;" parent="1" vertex="1">
          <mxGeometry x="-480" y="445" width="100" height="40" as="geometry" />
        </mxCell>
        <mxCell id="kEvtJjwDZgK5OptWkUgx-40" value="mobile_phone" style="ellipse;whiteSpace=wrap;html=1;align=center;" parent="1" vertex="1">
          <mxGeometry x="-230" y="771" width="100" height="40" as="geometry" />
        </mxCell>
        <mxCell id="kEvtJjwDZgK5OptWkUgx-42" value="home_phone" style="ellipse;whiteSpace=wrap;html=1;align=center;" parent="1" vertex="1">
          <mxGeometry x="-280" y="721" width="100" height="40" as="geometry" />
        </mxCell>
        <mxCell id="kEvtJjwDZgK5OptWkUgx-43" value="e-mail" style="ellipse;whiteSpace=wrap;html=1;align=center;" parent="1" vertex="1">
          <mxGeometry x="-300" y="676" width="100" height="40" as="geometry" />
        </mxCell>
        <mxCell id="kEvtJjwDZgK5OptWkUgx-70" value="publication_date" style="ellipse;whiteSpace=wrap;html=1;align=center;" parent="1" vertex="1">
          <mxGeometry x="720" y="661" width="100" height="40" as="geometry" />
        </mxCell>
        <mxCell id="kEvtJjwDZgK5OptWkUgx-77" value="Payment" style="whiteSpace=wrap;html=1;align=center;" parent="1" vertex="1">
          <mxGeometry x="1280" y="370" width="100" height="40" as="geometry" />
        </mxCell>
        <mxCell id="kEvtJjwDZgK5OptWkUgx-78" value="payment_id" style="ellipse;whiteSpace=wrap;html=1;align=center;fontStyle=4;" parent="1" vertex="1">
          <mxGeometry x="1440" y="360" width="100" height="40" as="geometry" />
        </mxCell>
        <mxCell id="kEvtJjwDZgK5OptWkUgx-79" value="payment_date" style="ellipse;whiteSpace=wrap;html=1;align=center;" parent="1" vertex="1">
          <mxGeometry x="1330" y="305" width="100" height="40" as="geometry" />
        </mxCell>
        <mxCell id="kEvtJjwDZgK5OptWkUgx-80" value="amount" style="ellipse;whiteSpace=wrap;html=1;align=center;" parent="1" vertex="1">
          <mxGeometry x="1440" y="290" width="100" height="40" as="geometry" />
        </mxCell>
        <mxCell id="kEvtJjwDZgK5OptWkUgx-81" value="payment_method" style="ellipse;whiteSpace=wrap;html=1;align=center;" parent="1" vertex="1">
          <mxGeometry x="1440" y="420" width="100" height="40" as="geometry" />
        </mxCell>
        <mxCell id="kEvtJjwDZgK5OptWkUgx-87" value="Publisher" style="whiteSpace=wrap;html=1;align=center;" parent="1" vertex="1">
          <mxGeometry x="1335.75" y="605" width="100" height="40" as="geometry" />
        </mxCell>
        <mxCell id="kEvtJjwDZgK5OptWkUgx-88" value="publisher_id" style="ellipse;whiteSpace=wrap;html=1;align=center;fontStyle=4;" parent="1" vertex="1">
          <mxGeometry x="1275.75" y="525" width="100" height="40" as="geometry" />
        </mxCell>
        <mxCell id="kEvtJjwDZgK5OptWkUgx-89" value="publisher_name" style="ellipse;whiteSpace=wrap;html=1;align=center;" parent="1" vertex="1">
          <mxGeometry x="1395.75" y="525" width="100" height="40" as="geometry" />
        </mxCell>
        <mxCell id="kEvtJjwDZgK5OptWkUgx-90" value="phone_number" style="ellipse;whiteSpace=wrap;html=1;align=center;" parent="1" vertex="1">
          <mxGeometry x="1445.75" y="580" width="100" height="40" as="geometry" />
        </mxCell>
        <mxCell id="kEvtJjwDZgK5OptWkUgx-91" value="e-mail" style="ellipse;whiteSpace=wrap;html=1;align=center;" parent="1" vertex="1">
          <mxGeometry x="1445.75" y="645" width="100" height="40" as="geometry" />
        </mxCell>
        <mxCell id="kEvtJjwDZgK5OptWkUgx-100" value="" style="endArrow=none;html=1;rounded=0;exitX=0.587;exitY=1.059;exitDx=0;exitDy=0;exitPerimeter=0;entryX=0.213;entryY=0.01;entryDx=0;entryDy=0;entryPerimeter=0;" parent="1" source="kEvtJjwDZgK5OptWkUgx-88" target="kEvtJjwDZgK5OptWkUgx-87" edge="1">
          <mxGeometry relative="1" as="geometry">
            <mxPoint x="1235.75" y="695" as="sourcePoint" />
            <mxPoint x="1395.75" y="695" as="targetPoint" />
          </mxGeometry>
        </mxCell>
        <mxCell id="kEvtJjwDZgK5OptWkUgx-101" value="" style="endArrow=none;html=1;rounded=0;exitX=0.309;exitY=1.01;exitDx=0;exitDy=0;exitPerimeter=0;entryX=0.5;entryY=0;entryDx=0;entryDy=0;" parent="1" source="kEvtJjwDZgK5OptWkUgx-89" target="kEvtJjwDZgK5OptWkUgx-87" edge="1">
          <mxGeometry relative="1" as="geometry">
            <mxPoint x="1344.75" y="577" as="sourcePoint" />
            <mxPoint x="1366.75" y="615" as="targetPoint" />
          </mxGeometry>
        </mxCell>
        <mxCell id="kEvtJjwDZgK5OptWkUgx-102" value="" style="endArrow=none;html=1;rounded=0;exitX=0;exitY=0.5;exitDx=0;exitDy=0;entryX=1;entryY=0.25;entryDx=0;entryDy=0;" parent="1" source="kEvtJjwDZgK5OptWkUgx-90" target="kEvtJjwDZgK5OptWkUgx-87" edge="1">
          <mxGeometry relative="1" as="geometry">
            <mxPoint x="1354.75" y="587" as="sourcePoint" />
            <mxPoint x="1376.75" y="625" as="targetPoint" />
          </mxGeometry>
        </mxCell>
        <mxCell id="kEvtJjwDZgK5OptWkUgx-103" value="" style="endArrow=none;html=1;rounded=0;exitX=0.321;exitY=0.028;exitDx=0;exitDy=0;exitPerimeter=0;entryX=1;entryY=0.75;entryDx=0;entryDy=0;" parent="1" source="kEvtJjwDZgK5OptWkUgx-91" target="kEvtJjwDZgK5OptWkUgx-87" edge="1">
          <mxGeometry relative="1" as="geometry">
            <mxPoint x="1364.75" y="597" as="sourcePoint" />
            <mxPoint x="1386.75" y="635" as="targetPoint" />
          </mxGeometry>
        </mxCell>
        <mxCell id="kEvtJjwDZgK5OptWkUgx-107" value="" style="endArrow=none;html=1;rounded=0;exitX=0;exitY=1;exitDx=0;exitDy=0;entryX=1;entryY=0.25;entryDx=0;entryDy=0;" parent="1" source="kEvtJjwDZgK5OptWkUgx-15" target="kEvtJjwDZgK5OptWkUgx-4" edge="1">
          <mxGeometry relative="1" as="geometry">
            <mxPoint x="1575.25" y="775" as="sourcePoint" />
            <mxPoint x="1535.75" y="770.9999999999998" as="targetPoint" />
          </mxGeometry>
        </mxCell>
        <mxCell id="kEvtJjwDZgK5OptWkUgx-108" value="" style="endArrow=none;html=1;rounded=0;exitX=0;exitY=0;exitDx=0;exitDy=0;entryX=1;entryY=0.75;entryDx=0;entryDy=0;" parent="1" source="kEvtJjwDZgK5OptWkUgx-14" target="kEvtJjwDZgK5OptWkUgx-4" edge="1">
          <mxGeometry relative="1" as="geometry">
            <mxPoint x="1526.75" y="777" as="sourcePoint" />
            <mxPoint x="1545.75" y="805.1999999999998" as="targetPoint" />
          </mxGeometry>
        </mxCell>
        <mxCell id="_qUYr22ZmbMlHLYQtjZS-9" value="Published by" style="shape=rhombus;perimeter=rhombusPerimeter;whiteSpace=wrap;html=1;align=center;" parent="1" vertex="1">
          <mxGeometry x="1040" y="589.5" width="130" height="71" as="geometry" />
        </mxCell>
        <mxCell id="_qUYr22ZmbMlHLYQtjZS-18" value="M" style="text;html=1;align=center;verticalAlign=middle;whiteSpace=wrap;rounded=0;" parent="1" vertex="1">
          <mxGeometry x="650" y="754" width="25" height="24" as="geometry" />
        </mxCell>
        <mxCell id="_qUYr22ZmbMlHLYQtjZS-21" value="Belongs to" style="shape=rhombus;perimeter=rhombusPerimeter;whiteSpace=wrap;html=1;align=center;" parent="1" vertex="1">
          <mxGeometry x="1060" y="751" width="120" height="60" as="geometry" />
        </mxCell>
        <mxCell id="_qUYr22ZmbMlHLYQtjZS-33" value="" style="endArrow=none;html=1;rounded=0;exitX=1;exitY=1;exitDx=0;exitDy=0;entryX=0;entryY=0.5;entryDx=0;entryDy=0;" parent="1" source="kEvtJjwDZgK5OptWkUgx-30" target="kEvtJjwDZgK5OptWkUgx-6" edge="1">
          <mxGeometry relative="1" as="geometry">
            <mxPoint x="741.5" y="450" as="sourcePoint" />
            <mxPoint x="901.5" y="450" as="targetPoint" />
          </mxGeometry>
        </mxCell>
        <mxCell id="_qUYr22ZmbMlHLYQtjZS-34" value="" style="endArrow=none;html=1;rounded=0;exitX=0.5;exitY=1;exitDx=0;exitDy=0;entryX=0.5;entryY=0;entryDx=0;entryDy=0;" parent="1" source="kEvtJjwDZgK5OptWkUgx-32" target="kEvtJjwDZgK5OptWkUgx-6" edge="1">
          <mxGeometry relative="1" as="geometry">
            <mxPoint x="753.5" y="374" as="sourcePoint" />
            <mxPoint x="791.5" y="400" as="targetPoint" />
          </mxGeometry>
        </mxCell>
        <mxCell id="_qUYr22ZmbMlHLYQtjZS-35" value="" style="endArrow=none;html=1;rounded=0;exitX=1;exitY=1;exitDx=0;exitDy=0;entryX=0;entryY=0;entryDx=0;entryDy=0;" parent="1" source="kEvtJjwDZgK5OptWkUgx-34" target="kEvtJjwDZgK5OptWkUgx-6" edge="1">
          <mxGeometry relative="1" as="geometry">
            <mxPoint x="763.5" y="384" as="sourcePoint" />
            <mxPoint x="801.5" y="410" as="targetPoint" />
          </mxGeometry>
        </mxCell>
        <mxCell id="_qUYr22ZmbMlHLYQtjZS-36" value="" style="endArrow=none;html=1;rounded=0;exitX=0;exitY=1;exitDx=0;exitDy=0;entryX=1;entryY=0;entryDx=0;entryDy=0;" parent="1" source="kEvtJjwDZgK5OptWkUgx-33" target="kEvtJjwDZgK5OptWkUgx-6" edge="1">
          <mxGeometry relative="1" as="geometry">
            <mxPoint x="773.5" y="394" as="sourcePoint" />
            <mxPoint x="811.5" y="420" as="targetPoint" />
          </mxGeometry>
        </mxCell>
        <mxCell id="_qUYr22ZmbMlHLYQtjZS-37" value="" style="endArrow=none;html=1;rounded=0;exitX=1;exitY=0.5;exitDx=0;exitDy=0;entryX=0;entryY=1;entryDx=0;entryDy=0;" parent="1" source="kEvtJjwDZgK5OptWkUgx-6" target="kEvtJjwDZgK5OptWkUgx-35" edge="1">
          <mxGeometry relative="1" as="geometry">
            <mxPoint x="783.5" y="404" as="sourcePoint" />
            <mxPoint x="821.5" y="430" as="targetPoint" />
          </mxGeometry>
        </mxCell>
        <mxCell id="_qUYr22ZmbMlHLYQtjZS-40" value="&lt;strong&gt;Places&lt;/strong&gt;" style="shape=rhombus;perimeter=rhombusPerimeter;whiteSpace=wrap;html=1;align=center;" parent="1" vertex="1">
          <mxGeometry x="440" y="360" width="120" height="60" as="geometry" />
        </mxCell>
        <mxCell id="_qUYr22ZmbMlHLYQtjZS-61" value="" style="endArrow=none;html=1;rounded=0;exitX=0;exitY=0.5;exitDx=0;exitDy=0;entryX=1;entryY=0.75;entryDx=0;entryDy=0;" parent="1" source="kEvtJjwDZgK5OptWkUgx-81" target="kEvtJjwDZgK5OptWkUgx-77" edge="1">
          <mxGeometry relative="1" as="geometry">
            <mxPoint x="1615" y="476" as="sourcePoint" />
            <mxPoint x="1569.9999999999998" y="420" as="targetPoint" />
          </mxGeometry>
        </mxCell>
        <mxCell id="_qUYr22ZmbMlHLYQtjZS-62" value="" style="endArrow=none;html=1;rounded=0;exitX=0;exitY=0.5;exitDx=0;exitDy=0;entryX=1;entryY=0.5;entryDx=0;entryDy=0;" parent="1" source="kEvtJjwDZgK5OptWkUgx-78" target="kEvtJjwDZgK5OptWkUgx-77" edge="1">
          <mxGeometry relative="1" as="geometry">
            <mxPoint x="1570" y="445" as="sourcePoint" />
            <mxPoint x="1589.9999999999998" y="405" as="targetPoint" />
          </mxGeometry>
        </mxCell>
        <mxCell id="_qUYr22ZmbMlHLYQtjZS-63" value="" style="endArrow=none;html=1;rounded=0;exitX=0;exitY=1;exitDx=0;exitDy=0;entryX=1;entryY=0.25;entryDx=0;entryDy=0;" parent="1" source="kEvtJjwDZgK5OptWkUgx-80" target="kEvtJjwDZgK5OptWkUgx-77" edge="1">
          <mxGeometry relative="1" as="geometry">
            <mxPoint x="1570" y="445" as="sourcePoint" />
            <mxPoint x="1579.9999999999998" y="385" as="targetPoint" />
          </mxGeometry>
        </mxCell>
        <mxCell id="_qUYr22ZmbMlHLYQtjZS-64" value="" style="endArrow=none;html=1;rounded=0;exitX=0.5;exitY=1;exitDx=0;exitDy=0;entryX=0.75;entryY=0;entryDx=0;entryDy=0;" parent="1" source="kEvtJjwDZgK5OptWkUgx-79" target="kEvtJjwDZgK5OptWkUgx-77" edge="1">
          <mxGeometry relative="1" as="geometry">
            <mxPoint x="1308" y="329" as="sourcePoint" />
            <mxPoint x="1378.0000000000002" y="370" as="targetPoint" />
          </mxGeometry>
        </mxCell>
        <mxCell id="_qUYr22ZmbMlHLYQtjZS-66" value="Paid with" style="shape=rhombus;perimeter=rhombusPerimeter;whiteSpace=wrap;html=1;align=center;" parent="1" vertex="1">
          <mxGeometry x="1040" y="360" width="120" height="60" as="geometry" />
        </mxCell>
        <mxCell id="_qUYr22ZmbMlHLYQtjZS-69" value="" style="endArrow=none;html=1;rounded=0;exitX=1;exitY=0;exitDx=0;exitDy=0;entryX=0.5;entryY=1;entryDx=0;entryDy=0;" parent="1" source="kEvtJjwDZgK5OptWkUgx-36" target="kEvtJjwDZgK5OptWkUgx-23" edge="1">
          <mxGeometry relative="1" as="geometry">
            <mxPoint x="-380" y="400" as="sourcePoint" />
            <mxPoint x="-220" y="400" as="targetPoint" />
          </mxGeometry>
        </mxCell>
        <mxCell id="_qUYr22ZmbMlHLYQtjZS-70" value="" style="endArrow=none;html=1;rounded=0;exitX=1;exitY=0;exitDx=0;exitDy=0;entryX=0.25;entryY=1;entryDx=0;entryDy=0;" parent="1" source="kEvtJjwDZgK5OptWkUgx-39" target="kEvtJjwDZgK5OptWkUgx-23" edge="1">
          <mxGeometry relative="1" as="geometry">
            <mxPoint x="-335" y="501" as="sourcePoint" />
            <mxPoint x="-330" y="415" as="targetPoint" />
          </mxGeometry>
        </mxCell>
        <mxCell id="_qUYr22ZmbMlHLYQtjZS-71" value="" style="endArrow=none;html=1;rounded=0;exitX=1;exitY=0.5;exitDx=0;exitDy=0;entryX=0;entryY=0.75;entryDx=0;entryDy=0;" parent="1" source="kEvtJjwDZgK5OptWkUgx-24" target="kEvtJjwDZgK5OptWkUgx-23" edge="1">
          <mxGeometry relative="1" as="geometry">
            <mxPoint x="-325" y="511" as="sourcePoint" />
            <mxPoint x="-320" y="425" as="targetPoint" />
          </mxGeometry>
        </mxCell>
        <mxCell id="_qUYr22ZmbMlHLYQtjZS-72" value="" style="endArrow=none;html=1;rounded=0;exitX=1;exitY=0.5;exitDx=0;exitDy=0;entryX=0;entryY=0.25;entryDx=0;entryDy=0;" parent="1" source="kEvtJjwDZgK5OptWkUgx-29" target="kEvtJjwDZgK5OptWkUgx-23" edge="1">
          <mxGeometry relative="1" as="geometry">
            <mxPoint x="-400" y="425" as="sourcePoint" />
            <mxPoint x="-380" y="405" as="targetPoint" />
          </mxGeometry>
        </mxCell>
        <mxCell id="_qUYr22ZmbMlHLYQtjZS-73" value="" style="endArrow=none;html=1;rounded=0;exitX=1;exitY=1;exitDx=0;exitDy=0;entryX=0.25;entryY=0;entryDx=0;entryDy=0;" parent="1" source="kEvtJjwDZgK5OptWkUgx-26" target="kEvtJjwDZgK5OptWkUgx-23" edge="1">
          <mxGeometry relative="1" as="geometry">
            <mxPoint x="-400" y="370" as="sourcePoint" />
            <mxPoint x="-380" y="385" as="targetPoint" />
          </mxGeometry>
        </mxCell>
        <mxCell id="_qUYr22ZmbMlHLYQtjZS-74" value="" style="endArrow=none;html=1;rounded=0;exitX=1;exitY=1;exitDx=0;exitDy=0;entryX=0.5;entryY=0;entryDx=0;entryDy=0;" parent="1" source="kEvtJjwDZgK5OptWkUgx-27" target="kEvtJjwDZgK5OptWkUgx-23" edge="1">
          <mxGeometry relative="1" as="geometry">
            <mxPoint x="-385" y="334" as="sourcePoint" />
            <mxPoint x="-355" y="375" as="targetPoint" />
          </mxGeometry>
        </mxCell>
        <mxCell id="_qUYr22ZmbMlHLYQtjZS-76" value="Lives at" style="shape=rhombus;perimeter=rhombusPerimeter;whiteSpace=wrap;html=1;align=center;" parent="1" vertex="1">
          <mxGeometry x="-180" y="355" width="120" height="60" as="geometry" />
        </mxCell>
        <mxCell id="_qUYr22ZmbMlHLYQtjZS-81" value="Writes" style="shape=rhombus;perimeter=rhombusPerimeter;whiteSpace=wrap;html=1;align=center;" parent="1" vertex="1">
          <mxGeometry x="460" y="746" width="120" height="60" as="geometry" />
        </mxCell>
        <mxCell id="_qUYr22ZmbMlHLYQtjZS-88" value="Contains" style="shape=rhombus;perimeter=rhombusPerimeter;whiteSpace=wrap;html=1;align=center;" parent="1" vertex="1">
          <mxGeometry x="770" y="455" width="120" height="60" as="geometry" />
        </mxCell>
        <mxCell id="_qUYr22ZmbMlHLYQtjZS-104" value="" style="endArrow=none;html=1;rounded=0;exitX=0.25;exitY=0;exitDx=0;exitDy=0;entryX=0.5;entryY=1;entryDx=0;entryDy=0;" parent="1" source="kEvtJjwDZgK5OptWkUgx-2" target="kEvtJjwDZgK5OptWkUgx-70" edge="1">
          <mxGeometry relative="1" as="geometry">
            <mxPoint x="1465" y="760" as="sourcePoint" />
            <mxPoint x="1450" y="776" as="targetPoint" />
          </mxGeometry>
        </mxCell>
        <mxCell id="_qUYr22ZmbMlHLYQtjZS-105" value="" style="endArrow=none;html=1;rounded=0;exitX=0;exitY=0.25;exitDx=0;exitDy=0;entryX=1;entryY=1;entryDx=0;entryDy=0;" parent="1" source="kEvtJjwDZgK5OptWkUgx-2" target="kEvtJjwDZgK5OptWkUgx-8" edge="1">
          <mxGeometry relative="1" as="geometry">
            <mxPoint x="815" y="766" as="sourcePoint" />
            <mxPoint x="790" y="690" as="targetPoint" />
          </mxGeometry>
        </mxCell>
        <mxCell id="_qUYr22ZmbMlHLYQtjZS-106" value="" style="endArrow=none;html=1;rounded=0;exitX=0;exitY=0.75;exitDx=0;exitDy=0;entryX=1;entryY=0;entryDx=0;entryDy=0;" parent="1" source="kEvtJjwDZgK5OptWkUgx-2" target="kEvtJjwDZgK5OptWkUgx-7" edge="1">
          <mxGeometry relative="1" as="geometry">
            <mxPoint x="825" y="776" as="sourcePoint" />
            <mxPoint x="800" y="700" as="targetPoint" />
          </mxGeometry>
        </mxCell>
        <mxCell id="_qUYr22ZmbMlHLYQtjZS-107" value="" style="endArrow=none;html=1;rounded=0;exitX=0;exitY=0;exitDx=0;exitDy=0;entryX=1;entryY=0.75;entryDx=0;entryDy=0;" parent="1" source="kEvtJjwDZgK5OptWkUgx-9" target="kEvtJjwDZgK5OptWkUgx-2" edge="1">
          <mxGeometry relative="1" as="geometry">
            <mxPoint x="835" y="786" as="sourcePoint" />
            <mxPoint x="810" y="710" as="targetPoint" />
          </mxGeometry>
        </mxCell>
        <mxCell id="_qUYr22ZmbMlHLYQtjZS-108" value="" style="endArrow=none;html=1;rounded=0;exitX=0;exitY=1;exitDx=0;exitDy=0;entryX=1;entryY=0.25;entryDx=0;entryDy=0;" parent="1" source="kEvtJjwDZgK5OptWkUgx-16" target="kEvtJjwDZgK5OptWkUgx-2" edge="1">
          <mxGeometry relative="1" as="geometry">
            <mxPoint x="915" y="822" as="sourcePoint" />
            <mxPoint x="890" y="796" as="targetPoint" />
          </mxGeometry>
        </mxCell>
        <mxCell id="_qUYr22ZmbMlHLYQtjZS-109" value="M" style="text;html=1;align=center;verticalAlign=middle;whiteSpace=wrap;rounded=0;" parent="1" vertex="1">
          <mxGeometry x="890" y="756" width="20" height="20" as="geometry" />
        </mxCell>
        <mxCell id="_qUYr22ZmbMlHLYQtjZS-110" value="1" style="text;html=1;align=center;verticalAlign=middle;whiteSpace=wrap;rounded=0;" parent="1" vertex="1">
          <mxGeometry x="1295.75" y="761" width="20" height="20" as="geometry" />
        </mxCell>
        <mxCell id="_qUYr22ZmbMlHLYQtjZS-111" value="M" style="text;html=1;align=center;verticalAlign=middle;whiteSpace=wrap;rounded=0;" parent="1" vertex="1">
          <mxGeometry x="850" y="645" width="20" height="20" as="geometry" />
        </mxCell>
        <mxCell id="_qUYr22ZmbMlHLYQtjZS-112" value="1" style="text;html=1;align=center;verticalAlign=middle;whiteSpace=wrap;rounded=0;" parent="1" vertex="1">
          <mxGeometry x="1285.75" y="605" width="20" height="20" as="geometry" />
        </mxCell>
        <mxCell id="_qUYr22ZmbMlHLYQtjZS-127" value="1" style="text;html=1;align=center;verticalAlign=middle;whiteSpace=wrap;rounded=0;" parent="1" vertex="1">
          <mxGeometry x="300" y="370" width="20" height="20" as="geometry" />
        </mxCell>
        <mxCell id="_qUYr22ZmbMlHLYQtjZS-130" value="M" style="text;html=1;align=center;verticalAlign=middle;whiteSpace=wrap;rounded=0;" parent="1" vertex="1">
          <mxGeometry x="638.5" y="370" width="20" height="20" as="geometry" />
        </mxCell>
        <mxCell id="_qUYr22ZmbMlHLYQtjZS-132" value="1" style="text;html=1;align=center;verticalAlign=middle;whiteSpace=wrap;rounded=0;" parent="1" vertex="1">
          <mxGeometry x="290" y="756" width="20" height="20" as="geometry" />
        </mxCell>
        <mxCell id="_qUYr22ZmbMlHLYQtjZS-135" value="M" style="text;html=1;align=center;verticalAlign=middle;whiteSpace=wrap;rounded=0;" parent="1" vertex="1">
          <mxGeometry x="805.75" y="600" width="20" height="20" as="geometry" />
        </mxCell>
        <mxCell id="_qUYr22ZmbMlHLYQtjZS-136" value="M" style="text;html=1;align=center;verticalAlign=middle;whiteSpace=wrap;rounded=0;" parent="1" vertex="1">
          <mxGeometry x="810" y="430" width="20" height="20" as="geometry" />
        </mxCell>
        <mxCell id="_qUYr22ZmbMlHLYQtjZS-138" value="1" style="text;html=1;align=center;verticalAlign=middle;whiteSpace=wrap;rounded=0;" parent="1" vertex="1">
          <mxGeometry x="893" y="390" width="20" height="20" as="geometry" />
        </mxCell>
        <mxCell id="_qUYr22ZmbMlHLYQtjZS-139" value="1" style="text;html=1;align=center;verticalAlign=middle;whiteSpace=wrap;rounded=0;" parent="1" vertex="1">
          <mxGeometry x="1240" y="390" width="20" height="20" as="geometry" />
        </mxCell>
        <mxCell id="_qUYr22ZmbMlHLYQtjZS-140" value="M" style="text;html=1;align=center;verticalAlign=middle;whiteSpace=wrap;rounded=0;" parent="1" vertex="1">
          <mxGeometry x="-140" y="625" width="20" height="20" as="geometry" />
        </mxCell>
        <mxCell id="_qUYr22ZmbMlHLYQtjZS-141" value="1" style="text;html=1;align=center;verticalAlign=middle;whiteSpace=wrap;rounded=0;" parent="1" vertex="1">
          <mxGeometry x="-270.01" y="365" width="20" height="20" as="geometry" />
        </mxCell>
        <mxCell id="zgkDY3eTsV_191SLRf_i-5" value="Person" style="whiteSpace=wrap;html=1;align=center;" parent="1" vertex="1">
          <mxGeometry x="-170" y="645" width="100" height="40" as="geometry" />
        </mxCell>
        <mxCell id="zgkDY3eTsV_191SLRf_i-7" value="" style="endArrow=none;html=1;rounded=0;entryX=0.5;entryY=0;entryDx=0;entryDy=0;exitX=0.75;exitY=1;exitDx=0;exitDy=0;" parent="1" source="zgkDY3eTsV_191SLRf_i-5" target="kEvtJjwDZgK5OptWkUgx-17" edge="1">
          <mxGeometry width="50" height="50" relative="1" as="geometry">
            <mxPoint x="-150" y="740" as="sourcePoint" />
            <mxPoint x="-100" y="690" as="targetPoint" />
          </mxGeometry>
        </mxCell>
        <mxCell id="zgkDY3eTsV_191SLRf_i-8" value="" style="endArrow=none;html=1;rounded=0;entryX=1;entryY=0;entryDx=0;entryDy=0;exitX=0.5;exitY=1;exitDx=0;exitDy=0;" parent="1" source="zgkDY3eTsV_191SLRf_i-5" target="kEvtJjwDZgK5OptWkUgx-40" edge="1">
          <mxGeometry width="50" height="50" relative="1" as="geometry">
            <mxPoint x="-85" y="695" as="sourcePoint" />
            <mxPoint x="-50" y="730" as="targetPoint" />
          </mxGeometry>
        </mxCell>
        <mxCell id="zgkDY3eTsV_191SLRf_i-9" value="" style="endArrow=none;html=1;rounded=0;entryX=1;entryY=0;entryDx=0;entryDy=0;exitX=0.25;exitY=1;exitDx=0;exitDy=0;" parent="1" source="zgkDY3eTsV_191SLRf_i-5" target="kEvtJjwDZgK5OptWkUgx-42" edge="1">
          <mxGeometry width="50" height="50" relative="1" as="geometry">
            <mxPoint x="-110" y="695" as="sourcePoint" />
            <mxPoint x="-170" y="781" as="targetPoint" />
          </mxGeometry>
        </mxCell>
        <mxCell id="zgkDY3eTsV_191SLRf_i-10" value="" style="endArrow=none;html=1;rounded=0;entryX=1;entryY=0.5;entryDx=0;entryDy=0;exitX=0;exitY=1;exitDx=0;exitDy=0;" parent="1" source="zgkDY3eTsV_191SLRf_i-5" target="kEvtJjwDZgK5OptWkUgx-43" edge="1">
          <mxGeometry width="50" height="50" relative="1" as="geometry">
            <mxPoint x="-100" y="705" as="sourcePoint" />
            <mxPoint x="-160" y="791" as="targetPoint" />
          </mxGeometry>
        </mxCell>
        <mxCell id="zgkDY3eTsV_191SLRf_i-11" value="" style="endArrow=none;html=1;rounded=0;entryX=1;entryY=0.5;entryDx=0;entryDy=0;exitX=0;exitY=0.5;exitDx=0;exitDy=0;" parent="1" source="zgkDY3eTsV_191SLRf_i-5" target="kEvtJjwDZgK5OptWkUgx-25" edge="1">
          <mxGeometry width="50" height="50" relative="1" as="geometry">
            <mxPoint x="-90" y="715" as="sourcePoint" />
            <mxPoint x="-150" y="801" as="targetPoint" />
          </mxGeometry>
        </mxCell>
        <mxCell id="zgkDY3eTsV_191SLRf_i-12" value="" style="endArrow=none;html=1;rounded=0;entryX=1;entryY=0.5;entryDx=0;entryDy=0;exitX=0;exitY=0;exitDx=0;exitDy=0;" parent="1" source="zgkDY3eTsV_191SLRf_i-5" target="kEvtJjwDZgK5OptWkUgx-19" edge="1">
          <mxGeometry width="50" height="50" relative="1" as="geometry">
            <mxPoint x="-80" y="725" as="sourcePoint" />
            <mxPoint x="-140" y="811" as="targetPoint" />
          </mxGeometry>
        </mxCell>
        <mxCell id="zgkDY3eTsV_191SLRf_i-13" value="" style="endArrow=none;html=1;rounded=0;entryX=0.5;entryY=1;entryDx=0;entryDy=0;exitX=0.25;exitY=0;exitDx=0;exitDy=0;" parent="1" source="zgkDY3eTsV_191SLRf_i-5" target="kEvtJjwDZgK5OptWkUgx-20" edge="1">
          <mxGeometry width="50" height="50" relative="1" as="geometry">
            <mxPoint x="-70" y="735" as="sourcePoint" />
            <mxPoint x="-130" y="821" as="targetPoint" />
          </mxGeometry>
        </mxCell>
        <mxCell id="zgkDY3eTsV_191SLRf_i-14" value="WriterType" style="ellipse;whiteSpace=wrap;html=1;align=center;" parent="1" vertex="1">
          <mxGeometry x="260" y="691" width="100" height="40" as="geometry" />
        </mxCell>
        <mxCell id="zgkDY3eTsV_191SLRf_i-15" value="ClientType" style="ellipse;whiteSpace=wrap;html=1;align=center;" parent="1" vertex="1">
          <mxGeometry x="250" y="295" width="100" height="40" as="geometry" />
        </mxCell>
        <mxCell id="zgkDY3eTsV_191SLRf_i-16" value="" style="endArrow=none;html=1;rounded=0;exitX=1;exitY=0;exitDx=0;exitDy=0;entryX=0.25;entryY=1;entryDx=0;entryDy=0;" parent="1" source="zgkDY3eTsV_191SLRf_i-17" target="kEvtJjwDZgK5OptWkUgx-5" edge="1">
          <mxGeometry width="50" height="50" relative="1" as="geometry">
            <mxPoint x="210" y="590" as="sourcePoint" />
            <mxPoint x="260" y="540" as="targetPoint" />
          </mxGeometry>
        </mxCell>
        <mxCell id="zgkDY3eTsV_191SLRf_i-18" value="" style="endArrow=none;html=1;rounded=0;exitX=1;exitY=0.5;exitDx=0;exitDy=0;" parent="1" source="zgkDY3eTsV_191SLRf_i-5" target="zgkDY3eTsV_191SLRf_i-17" edge="1">
          <mxGeometry width="50" height="50" relative="1" as="geometry">
            <mxPoint x="-70" y="665" as="sourcePoint" />
            <mxPoint x="260" y="540" as="targetPoint" />
          </mxGeometry>
        </mxCell>
        <mxCell id="zgkDY3eTsV_191SLRf_i-17" value="d" style="ellipse;whiteSpace=wrap;html=1;aspect=fixed;" parent="1" vertex="1">
          <mxGeometry x="60" y="585" width="40" height="40" as="geometry" />
        </mxCell>
        <mxCell id="zgkDY3eTsV_191SLRf_i-19" value="" style="endArrow=none;html=1;rounded=0;exitX=1;exitY=1;exitDx=0;exitDy=0;entryX=0.25;entryY=0;entryDx=0;entryDy=0;" parent="1" source="zgkDY3eTsV_191SLRf_i-17" target="kEvtJjwDZgK5OptWkUgx-3" edge="1">
          <mxGeometry width="50" height="50" relative="1" as="geometry">
            <mxPoint x="104" y="601" as="sourcePoint" />
            <mxPoint x="215" y="418" as="targetPoint" />
          </mxGeometry>
        </mxCell>
        <mxCell id="zgkDY3eTsV_191SLRf_i-20" value="" style="shape=requiredInterface;html=1;verticalLabelPosition=bottom;sketch=0;rotation=-65;" parent="1" vertex="1">
          <mxGeometry x="135.15" y="492.5" width="20" height="25" as="geometry" />
        </mxCell>
        <mxCell id="zgkDY3eTsV_191SLRf_i-23" value="" style="shape=requiredInterface;html=1;verticalLabelPosition=bottom;sketch=0;rotation=60;" parent="1" vertex="1">
          <mxGeometry x="135.15" y="668.5" width="20" height="25" as="geometry" />
        </mxCell>
        <mxCell id="zgkDY3eTsV_191SLRf_i-24" value="" style="endArrow=none;html=1;rounded=0;exitX=0.75;exitY=0;exitDx=0;exitDy=0;entryX=0.5;entryY=1;entryDx=0;entryDy=0;" parent="1" source="kEvtJjwDZgK5OptWkUgx-3" target="zgkDY3eTsV_191SLRf_i-14" edge="1">
          <mxGeometry width="50" height="50" relative="1" as="geometry">
            <mxPoint x="260" y="680" as="sourcePoint" />
            <mxPoint x="310" y="630" as="targetPoint" />
          </mxGeometry>
        </mxCell>
        <mxCell id="zgkDY3eTsV_191SLRf_i-26" value="" style="endArrow=none;html=1;rounded=0;exitX=0.5;exitY=1;exitDx=0;exitDy=0;entryX=0.75;entryY=0;entryDx=0;entryDy=0;" parent="1" source="zgkDY3eTsV_191SLRf_i-15" target="kEvtJjwDZgK5OptWkUgx-5" edge="1">
          <mxGeometry width="50" height="50" relative="1" as="geometry">
            <mxPoint x="265" y="770" as="sourcePoint" />
            <mxPoint x="320" y="741" as="targetPoint" />
          </mxGeometry>
        </mxCell>
        <mxCell id="E30XBTVsKBM5FwZQ9N3K-3" value="writer_id" style="ellipse;whiteSpace=wrap;html=1;align=center;" parent="1" vertex="1">
          <mxGeometry x="780" y="836" width="100" height="40" as="geometry" />
        </mxCell>
        <mxCell id="E30XBTVsKBM5FwZQ9N3K-5" value="" style="endArrow=none;html=1;rounded=0;exitX=0.5;exitY=1;exitDx=0;exitDy=0;entryX=0.5;entryY=0;entryDx=0;entryDy=0;" parent="1" source="kEvtJjwDZgK5OptWkUgx-2" target="E30XBTVsKBM5FwZQ9N3K-3" edge="1">
          <mxGeometry relative="1" as="geometry">
            <mxPoint x="790" y="796" as="sourcePoint" />
            <mxPoint x="754" y="812" as="targetPoint" />
          </mxGeometry>
        </mxCell>
        <mxCell id="E30XBTVsKBM5FwZQ9N3K-6" value="client_id" style="ellipse;whiteSpace=wrap;html=1;align=center;" parent="1" vertex="1">
          <mxGeometry x="120" y="295" width="100" height="40" as="geometry" />
        </mxCell>
        <mxCell id="E30XBTVsKBM5FwZQ9N3K-7" value="" style="endArrow=none;html=1;rounded=0;entryX=0.25;entryY=0;entryDx=0;entryDy=0;exitX=0.5;exitY=1;exitDx=0;exitDy=0;" parent="1" source="E30XBTVsKBM5FwZQ9N3K-6" target="kEvtJjwDZgK5OptWkUgx-5" edge="1">
          <mxGeometry width="50" height="50" relative="1" as="geometry">
            <mxPoint x="190" y="345" as="sourcePoint" />
            <mxPoint x="265" y="378" as="targetPoint" />
          </mxGeometry>
        </mxCell>
        <mxCell id="E30XBTVsKBM5FwZQ9N3K-8" value="writer_id" style="ellipse;whiteSpace=wrap;html=1;align=center;" parent="1" vertex="1">
          <mxGeometry x="200" y="836" width="100" height="40" as="geometry" />
        </mxCell>
        <mxCell id="E30XBTVsKBM5FwZQ9N3K-9" value="" style="endArrow=none;html=1;rounded=0;exitX=0.5;exitY=1;exitDx=0;exitDy=0;entryX=0.5;entryY=0;entryDx=0;entryDy=0;" parent="1" source="kEvtJjwDZgK5OptWkUgx-3" target="E30XBTVsKBM5FwZQ9N3K-8" edge="1">
          <mxGeometry relative="1" as="geometry">
            <mxPoint x="840" y="806" as="sourcePoint" />
            <mxPoint x="840" y="846" as="targetPoint" />
          </mxGeometry>
        </mxCell>
        <mxCell id="E30XBTVsKBM5FwZQ9N3K-11" value="" style="endArrow=none;html=1;rounded=0;exitX=0;exitY=0.5;exitDx=0;exitDy=0;entryX=0.75;entryY=0;entryDx=0;entryDy=0;" parent="1" source="E30XBTVsKBM5FwZQ9N3K-12" target="kEvtJjwDZgK5OptWkUgx-2" edge="1">
          <mxGeometry relative="1" as="geometry">
            <mxPoint x="880" y="671" as="sourcePoint" />
            <mxPoint x="890" y="776" as="targetPoint" />
          </mxGeometry>
        </mxCell>
        <mxCell id="E30XBTVsKBM5FwZQ9N3K-12" value="category_id" style="ellipse;whiteSpace=wrap;html=1;align=center;" parent="1" vertex="1">
          <mxGeometry x="881.5" y="645" width="100" height="40" as="geometry" />
        </mxCell>
      </root>
    </mxGraphModel>
  </diagram>
</mxfile>
